# xmcd
#
# Track frame offsets:
#	150
#	22315
#	45363
#	64667
#	83258
#	109682
#	125089
#	146094
#	166239
#	186907
#	202918
#
# Disc length: 2992 seconds
#
# Revision: 2
# Processed by: cddbd v1.4PL0 Copyright (c) Steve Scherf et al.
# Submitted via: dBpowerAMP V4.0
#
DISCID=910bae0b
DTITLE=Joan Manuel Serrat - Versos en la boca
DYEAR=2002
DGENRE=Vocal
TTITLE0=De cuando estuve loco
TTITLE1=Así en la guerra como en los celos
TTITLE2=La bella y el metro
TTITLE3=Qué sería de mí
TTITLE4=África
TTITLE5=Muñeca rusa
TTITLE6=Los recuerdos
TTITLE7=La mala racha
TTITLE8=Sin piedad
TTITLE9=Es caprichoso el azar
TTITLE10=Señor de la noche
EXTD=
EXTT0=
EXTT1=
EXTT2=
EXTT3=
EXTT4=
EXTT5=
EXTT6=
EXTT7=
EXTT8=
EXTT9=
EXTT10=
PLAYORDER=
